<svg width="23" height="22" viewBox="0 0 23 22" fill="none" xmlns="http://www.w3.org/2000/svg">
<path d="M20.2913 3.49591C19.7805 2.98492 19.1741 2.57956 18.5066 2.303C17.8392 2.02643 17.1238 1.88409 16.4013 1.88409C15.6788 1.88409 14.9634 2.02643 14.2959 2.303C13.6285 2.57956 13.022 2.98492 12.5113 3.49591L11.4513 4.55591L10.3913 3.49591C9.3596 2.46422 7.96032 1.88462 6.50129 1.88462C5.04226 1.88462 3.64298 2.46422 2.61129 3.49591C1.5796 4.5276 1 5.92688 1 7.38591C1 8.84494 1.5796 10.2442 2.61129 11.2759L3.67129 12.3359L11.4513 20.1159L19.2313 12.3359L20.2913 11.2759C20.8023 10.7652 21.2076 10.1587 21.4842 9.49127C21.7608 8.82381 21.9031 8.1084 21.9031 7.38591C21.9031 6.66342 21.7608 5.94802 21.4842 5.28056C21.2076 4.6131 20.8023 4.00667 20.2913 3.49591V3.49591Z" stroke="#EDEDED" stroke-width="2" stroke-linecap="round" stroke-linejoin="round"/>
</svg>
